<svg width="262" height="148" viewBox="0 0 262 148" fill="none" xmlns="http://www.w3.org/2000/svg">
<rect width="262" height="148" rx="74" fill="#262A24"/>
<g filter="url(#filter0_d_70_3)">
<mask id="path-2-inside-1_70_3" fill="white">
<path d="M33.1053 81.5263C32.5439 81.5263 32.0526 81.3158 31.6316 80.8947C31.2105 80.4737 31 79.9825 31 79.4211C31 78.8596 31.2105 78.3684 31.6316 77.9474C32.0526 77.5263 32.5439 77.3158 33.1053 77.3158C33.6667 77.3158 34.1579 77.5263 34.5789 77.9474C35 78.3684 35.2105 78.8596 35.2105 79.4211C35.2105 79.9825 35 80.4737 34.5789 80.8947C34.1579 81.3158 33.6667 81.5263 33.1053 81.5263ZM33.1053 64.6842C32.5439 64.6842 32.0526 64.4737 31.6316 64.0526C31.2105 63.6316 31 63.1404 31 62.5789C31 62.0175 31.2105 61.5263 31.6316 61.1053C32.0526 60.6842 32.5439 60.4737 33.1053 60.4737C33.6667 60.4737 34.1579 60.6842 34.5789 61.1053C35 61.5263 35.2105 62.0175 35.2105 62.5789C35.2105 63.1404 35 63.6316 34.5789 64.0526C34.1579 64.4737 33.6667 64.6842 33.1053 64.6842ZM45.7368 100.474C44.5439 100.474 43.5432 100.069 42.7347 99.2611C41.9291 98.4554 41.5263 97.4561 41.5263 96.2632C41.5263 95.0702 41.9291 94.0709 42.7347 93.2653C43.5432 92.4568 44.5439 92.0526 45.7368 92.0526C46.9298 92.0526 47.9305 92.4568 48.7389 93.2653C49.5446 94.0709 49.9474 95.0702 49.9474 96.2632C49.9474 97.4561 49.5446 98.4554 48.7389 99.2611C47.9305 100.069 46.9298 100.474 45.7368 100.474ZM45.7368 83.6316C44.5439 83.6316 43.5432 83.2274 42.7347 82.4189C41.9291 81.6133 41.5263 80.614 41.5263 79.4211C41.5263 78.2281 41.9291 77.2274 42.7347 76.4189C43.5432 75.6133 44.5439 75.2105 45.7368 75.2105C46.9298 75.2105 47.9305 75.6133 48.7389 76.4189C49.5446 77.2274 49.9474 78.2281 49.9474 79.4211C49.9474 80.614 49.5446 81.6133 48.7389 82.4189C47.9305 83.2274 46.9298 83.6316 45.7368 83.6316ZM45.7368 66.7895C44.5439 66.7895 43.5432 66.3853 42.7347 65.5768C41.9291 64.7712 41.5263 63.7719 41.5263 62.5789C41.5263 61.386 41.9291 60.3853 42.7347 59.5768C43.5432 58.7712 44.5439 58.3684 45.7368 58.3684C46.9298 58.3684 47.9305 58.7712 48.7389 59.5768C49.5446 60.3853 49.9474 61.386 49.9474 62.5789C49.9474 63.7719 49.5446 64.7712 48.7389 65.5768C47.9305 66.3853 46.9298 66.7895 45.7368 66.7895ZM45.7368 49.9474C44.5439 49.9474 43.5432 49.5446 42.7347 48.7389C41.9291 47.9305 41.5263 46.9298 41.5263 45.7368C41.5263 44.5439 41.9291 43.5432 42.7347 42.7347C43.5432 41.9291 44.5439 41.5263 45.7368 41.5263C46.9298 41.5263 47.9305 41.9291 48.7389 42.7347C49.5446 43.5432 49.9474 44.5439 49.9474 45.7368C49.9474 46.9298 49.5446 47.9305 48.7389 48.7389C47.9305 49.5446 46.9298 49.9474 45.7368 49.9474ZM62.5789 85.7368C60.8246 85.7368 59.334 85.1221 58.1074 83.8926C56.8779 82.666 56.2632 81.1754 56.2632 79.4211C56.2632 77.6667 56.8779 76.1761 58.1074 74.9495C59.334 73.72 60.8246 73.1053 62.5789 73.1053C64.3333 73.1053 65.8239 73.72 67.0505 74.9495C68.28 76.1761 68.8947 77.6667 68.8947 79.4211C68.8947 81.1754 68.28 82.666 67.0505 83.8926C65.8239 85.1221 64.3333 85.7368 62.5789 85.7368ZM62.5789 68.8947C60.8246 68.8947 59.334 68.28 58.1074 67.0505C56.8779 65.8239 56.2632 64.3333 56.2632 62.5789C56.2632 60.8246 56.8779 59.334 58.1074 58.1074C59.334 56.8779 60.8246 56.2632 62.5789 56.2632C64.3333 56.2632 65.8239 56.8779 67.0505 58.1074C68.28 59.334 68.8947 60.8246 68.8947 62.5789C68.8947 64.3333 68.28 65.8239 67.0505 67.0505C65.8239 68.28 64.3333 68.8947 62.5789 68.8947ZM62.5789 100.474C61.386 100.474 60.3867 100.069 59.5811 99.2611C58.7726 98.4554 58.3684 97.4561 58.3684 96.2632C58.3684 95.0702 58.7726 94.0709 59.5811 93.2653C60.3867 92.4568 61.386 92.0526 62.5789 92.0526C63.7719 92.0526 64.7726 92.4568 65.5811 93.2653C66.3867 94.0709 66.7895 95.0702 66.7895 96.2632C66.7895 97.4561 66.3867 98.4554 65.5811 99.2611C64.7726 100.069 63.7719 100.474 62.5789 100.474ZM62.5789 49.9474C61.386 49.9474 60.3867 49.5446 59.5811 48.7389C58.7726 47.9305 58.3684 46.9298 58.3684 45.7368C58.3684 44.5439 58.7726 43.5432 59.5811 42.7347C60.3867 41.9291 61.386 41.5263 62.5789 41.5263C63.7719 41.5263 64.7726 41.9291 65.5811 42.7347C66.3867 43.5432 66.7895 44.5439 66.7895 45.7368C66.7895 46.9298 66.3867 47.9305 65.5811 48.7389C64.7726 49.5446 63.7719 49.9474 62.5789 49.9474ZM62.5789 111C62.0175 111 61.5263 110.789 61.1053 110.368C60.6842 109.947 60.4737 109.456 60.4737 108.895C60.4737 108.333 60.6842 107.842 61.1053 107.421C61.5263 107 62.0175 106.789 62.5789 106.789C63.1404 106.789 63.6316 107 64.0526 107.421C64.4737 107.842 64.6842 108.333 64.6842 108.895C64.6842 109.456 64.4737 109.947 64.0526 110.368C63.6316 110.789 63.1404 111 62.5789 111ZM62.5789 35.2105C62.0175 35.2105 61.5263 35 61.1053 34.5789C60.6842 34.1579 60.4737 33.6667 60.4737 33.1053C60.4737 32.5439 60.6842 32.0526 61.1053 31.6316C61.5263 31.2105 62.0175 31 62.5789 31C63.1404 31 63.6316 31.2105 64.0526 31.6316C64.4737 32.0526 64.6842 32.5439 64.6842 33.1053C64.6842 33.6667 64.4737 34.1579 64.0526 34.5789C63.6316 35 63.1404 35.2105 62.5789 35.2105ZM79.4211 85.7368C77.6667 85.7368 76.1761 85.1221 74.9495 83.8926C73.72 82.666 73.1053 81.1754 73.1053 79.4211C73.1053 77.6667 73.72 76.1761 74.9495 74.9495C76.1761 73.72 77.6667 73.1053 79.4211 73.1053C81.1754 73.1053 82.666 73.72 83.8926 74.9495C85.1221 76.1761 85.7368 77.6667 85.7368 79.4211C85.7368 81.1754 85.1221 82.666 83.8926 83.8926C82.666 85.1221 81.1754 85.7368 79.4211 85.7368ZM79.4211 68.8947C77.6667 68.8947 76.1761 68.28 74.9495 67.0505C73.72 65.8239 73.1053 64.3333 73.1053 62.5789C73.1053 60.8246 73.72 59.334 74.9495 58.1074C76.1761 56.8779 77.6667 56.2632 79.4211 56.2632C81.1754 56.2632 82.666 56.8779 83.8926 58.1074C85.1221 59.334 85.7368 60.8246 85.7368 62.5789C85.7368 64.3333 85.1221 65.8239 83.8926 67.0505C82.666 68.28 81.1754 68.8947 79.4211 68.8947ZM79.4211 100.474C78.2281 100.474 77.2288 100.069 76.4232 99.2611C75.6147 98.4554 75.2105 97.4561 75.2105 96.2632C75.2105 95.0702 75.6147 94.0709 76.4232 93.2653C77.2288 92.4568 78.2281 92.0526 79.4211 92.0526C80.614 92.0526 81.6147 92.4568 82.4232 93.2653C83.2288 94.0709 83.6316 95.0702 83.6316 96.2632C83.6316 97.4561 83.2288 98.4554 82.4232 99.2611C81.6147 100.069 80.614 100.474 79.4211 100.474ZM79.4211 49.9474C78.2281 49.9474 77.2288 49.5446 76.4232 48.7389C75.6147 47.9305 75.2105 46.9298 75.2105 45.7368C75.2105 44.5439 75.6147 43.5432 76.4232 42.7347C77.2288 41.9291 78.2281 41.5263 79.4211 41.5263C80.614 41.5263 81.6147 41.9291 82.4232 42.7347C83.2288 43.5432 83.6316 44.5439 83.6316 45.7368C83.6316 46.9298 83.2288 47.9305 82.4232 48.7389C81.6147 49.5446 80.614 49.9474 79.4211 49.9474ZM79.4211 111C78.8596 111 78.3684 110.789 77.9474 110.368C77.5263 109.947 77.3158 109.456 77.3158 108.895C77.3158 108.333 77.5263 107.842 77.9474 107.421C78.3684 107 78.8596 106.789 79.4211 106.789C79.9825 106.789 80.4737 107 80.8947 107.421C81.3158 107.842 81.5263 108.333 81.5263 108.895C81.5263 109.456 81.3158 109.947 80.8947 110.368C80.4737 110.789 79.9825 111 79.4211 111ZM79.4211 35.2105C78.8596 35.2105 78.3684 35 77.9474 34.5789C77.5263 34.1579 77.3158 33.6667 77.3158 33.1053C77.3158 32.5439 77.5263 32.0526 77.9474 31.6316C78.3684 31.2105 78.8596 31 79.4211 31C79.9825 31 80.4737 31.2105 80.8947 31.6316C81.3158 32.0526 81.5263 32.5439 81.5263 33.1053C81.5263 33.6667 81.3158 34.1579 80.8947 34.5789C80.4737 35 79.9825 35.2105 79.4211 35.2105ZM96.2632 100.474C95.0702 100.474 94.0709 100.069 93.2653 99.2611C92.4568 98.4554 92.0526 97.4561 92.0526 96.2632C92.0526 95.0702 92.4568 94.0709 93.2653 93.2653C94.0709 92.4568 95.0702 92.0526 96.2632 92.0526C97.4561 92.0526 98.4554 92.4568 99.2611 93.2653C100.069 94.0709 100.474 95.0702 100.474 96.2632C100.474 97.4561 100.069 98.4554 99.2611 99.2611C98.4554 100.069 97.4561 100.474 96.2632 100.474ZM96.2632 83.6316C95.0702 83.6316 94.0709 83.2274 93.2653 82.4189C92.4568 81.6133 92.0526 80.614 92.0526 79.4211C92.0526 78.2281 92.4568 77.2274 93.2653 76.4189C94.0709 75.6133 95.0702 75.2105 96.2632 75.2105C97.4561 75.2105 98.4554 75.6133 99.2611 76.4189C100.069 77.2274 100.474 78.2281 100.474 79.4211C100.474 80.614 100.069 81.6133 99.2611 82.4189C98.4554 83.2274 97.4561 83.6316 96.2632 83.6316ZM96.2632 66.7895C95.0702 66.7895 94.0709 66.3853 93.2653 65.5768C92.4568 64.7712 92.0526 63.7719 92.0526 62.5789C92.0526 61.386 92.4568 60.3853 93.2653 59.5768C94.0709 58.7712 95.0702 58.3684 96.2632 58.3684C97.4561 58.3684 98.4554 58.7712 99.2611 59.5768C100.069 60.3853 100.474 61.386 100.474 62.5789C100.474 63.7719 100.069 64.7712 99.2611 65.5768C98.4554 66.3853 97.4561 66.7895 96.2632 66.7895ZM96.2632 49.9474C95.0702 49.9474 94.0709 49.5446 93.2653 48.7389C92.4568 47.9305 92.0526 46.9298 92.0526 45.7368C92.0526 44.5439 92.4568 43.5432 93.2653 42.7347C94.0709 41.9291 95.0702 41.5263 96.2632 41.5263C97.4561 41.5263 98.4554 41.9291 99.2611 42.7347C100.069 43.5432 100.474 44.5439 100.474 45.7368C100.474 46.9298 100.069 47.9305 99.2611 48.7389C98.4554 49.5446 97.4561 49.9474 96.2632 49.9474ZM108.895 81.5263C108.333 81.5263 107.842 81.3158 107.421 80.8947C107 80.4737 106.789 79.9825 106.789 79.4211C106.789 78.8596 107 78.3684 107.421 77.9474C107.842 77.5263 108.333 77.3158 108.895 77.3158C109.456 77.3158 109.947 77.5263 110.368 77.9474C110.789 78.3684 111 78.8596 111 79.4211C111 79.9825 110.789 80.4737 110.368 80.8947C109.947 81.3158 109.456 81.5263 108.895 81.5263ZM108.895 64.6842C108.333 64.6842 107.842 64.4737 107.421 64.0526C107 63.6316 106.789 63.1404 106.789 62.5789C106.789 62.0175 107 61.5263 107.421 61.1053C107.842 60.6842 108.333 60.4737 108.895 60.4737C109.456 60.4737 109.947 60.6842 110.368 61.1053C110.789 61.5263 111 62.0175 111 62.5789C111 63.1404 110.789 63.6316 110.368 64.0526C109.947 64.4737 109.456 64.6842 108.895 64.6842Z"/>
</mask>
<path d="M33.1053 81.5263C32.5439 81.5263 32.0526 81.3158 31.6316 80.8947C31.2105 80.4737 31 79.9825 31 79.4211C31 78.8596 31.2105 78.3684 31.6316 77.9474C32.0526 77.5263 32.5439 77.3158 33.1053 77.3158C33.6667 77.3158 34.1579 77.5263 34.5789 77.9474C35 78.3684 35.2105 78.8596 35.2105 79.4211C35.2105 79.9825 35 80.4737 34.5789 80.8947C34.1579 81.3158 33.6667 81.5263 33.1053 81.5263ZM33.1053 64.6842C32.5439 64.6842 32.0526 64.4737 31.6316 64.0526C31.2105 63.6316 31 63.1404 31 62.5789C31 62.0175 31.2105 61.5263 31.6316 61.1053C32.0526 60.6842 32.5439 60.4737 33.1053 60.4737C33.6667 60.4737 34.1579 60.6842 34.5789 61.1053C35 61.5263 35.2105 62.0175 35.2105 62.5789C35.2105 63.1404 35 63.6316 34.5789 64.0526C34.1579 64.4737 33.6667 64.6842 33.1053 64.6842ZM45.7368 100.474C44.5439 100.474 43.5432 100.069 42.7347 99.2611C41.9291 98.4554 41.5263 97.4561 41.5263 96.2632C41.5263 95.0702 41.9291 94.0709 42.7347 93.2653C43.5432 92.4568 44.5439 92.0526 45.7368 92.0526C46.9298 92.0526 47.9305 92.4568 48.7389 93.2653C49.5446 94.0709 49.9474 95.0702 49.9474 96.2632C49.9474 97.4561 49.5446 98.4554 48.7389 99.2611C47.9305 100.069 46.9298 100.474 45.7368 100.474ZM45.7368 83.6316C44.5439 83.6316 43.5432 83.2274 42.7347 82.4189C41.9291 81.6133 41.5263 80.614 41.5263 79.4211C41.5263 78.2281 41.9291 77.2274 42.7347 76.4189C43.5432 75.6133 44.5439 75.2105 45.7368 75.2105C46.9298 75.2105 47.9305 75.6133 48.7389 76.4189C49.5446 77.2274 49.9474 78.2281 49.9474 79.4211C49.9474 80.614 49.5446 81.6133 48.7389 82.4189C47.9305 83.2274 46.9298 83.6316 45.7368 83.6316ZM45.7368 66.7895C44.5439 66.7895 43.5432 66.3853 42.7347 65.5768C41.9291 64.7712 41.5263 63.7719 41.5263 62.5789C41.5263 61.386 41.9291 60.3853 42.7347 59.5768C43.5432 58.7712 44.5439 58.3684 45.7368 58.3684C46.9298 58.3684 47.9305 58.7712 48.7389 59.5768C49.5446 60.3853 49.9474 61.386 49.9474 62.5789C49.9474 63.7719 49.5446 64.7712 48.7389 65.5768C47.9305 66.3853 46.9298 66.7895 45.7368 66.7895ZM45.7368 49.9474C44.5439 49.9474 43.5432 49.5446 42.7347 48.7389C41.9291 47.9305 41.5263 46.9298 41.5263 45.7368C41.5263 44.5439 41.9291 43.5432 42.7347 42.7347C43.5432 41.9291 44.5439 41.5263 45.7368 41.5263C46.9298 41.5263 47.9305 41.9291 48.7389 42.7347C49.5446 43.5432 49.9474 44.5439 49.9474 45.7368C49.9474 46.9298 49.5446 47.9305 48.7389 48.7389C47.9305 49.5446 46.9298 49.9474 45.7368 49.9474ZM62.5789 85.7368C60.8246 85.7368 59.334 85.1221 58.1074 83.8926C56.8779 82.666 56.2632 81.1754 56.2632 79.4211C56.2632 77.6667 56.8779 76.1761 58.1074 74.9495C59.334 73.72 60.8246 73.1053 62.5789 73.1053C64.3333 73.1053 65.8239 73.72 67.0505 74.9495C68.28 76.1761 68.8947 77.6667 68.8947 79.4211C68.8947 81.1754 68.28 82.666 67.0505 83.8926C65.8239 85.1221 64.3333 85.7368 62.5789 85.7368ZM62.5789 68.8947C60.8246 68.8947 59.334 68.28 58.1074 67.0505C56.8779 65.8239 56.2632 64.3333 56.2632 62.5789C56.2632 60.8246 56.8779 59.334 58.1074 58.1074C59.334 56.8779 60.8246 56.2632 62.5789 56.2632C64.3333 56.2632 65.8239 56.8779 67.0505 58.1074C68.28 59.334 68.8947 60.8246 68.8947 62.5789C68.8947 64.3333 68.28 65.8239 67.0505 67.0505C65.8239 68.28 64.3333 68.8947 62.5789 68.8947ZM62.5789 100.474C61.386 100.474 60.3867 100.069 59.5811 99.2611C58.7726 98.4554 58.3684 97.4561 58.3684 96.2632C58.3684 95.0702 58.7726 94.0709 59.5811 93.2653C60.3867 92.4568 61.386 92.0526 62.5789 92.0526C63.7719 92.0526 64.7726 92.4568 65.5811 93.2653C66.3867 94.0709 66.7895 95.0702 66.7895 96.2632C66.7895 97.4561 66.3867 98.4554 65.5811 99.2611C64.7726 100.069 63.7719 100.474 62.5789 100.474ZM62.5789 49.9474C61.386 49.9474 60.3867 49.5446 59.5811 48.7389C58.7726 47.9305 58.3684 46.9298 58.3684 45.7368C58.3684 44.5439 58.7726 43.5432 59.5811 42.7347C60.3867 41.9291 61.386 41.5263 62.5789 41.5263C63.7719 41.5263 64.7726 41.9291 65.5811 42.7347C66.3867 43.5432 66.7895 44.5439 66.7895 45.7368C66.7895 46.9298 66.3867 47.9305 65.5811 48.7389C64.7726 49.5446 63.7719 49.9474 62.5789 49.9474ZM62.5789 111C62.0175 111 61.5263 110.789 61.1053 110.368C60.6842 109.947 60.4737 109.456 60.4737 108.895C60.4737 108.333 60.6842 107.842 61.1053 107.421C61.5263 107 62.0175 106.789 62.5789 106.789C63.1404 106.789 63.6316 107 64.0526 107.421C64.4737 107.842 64.6842 108.333 64.6842 108.895C64.6842 109.456 64.4737 109.947 64.0526 110.368C63.6316 110.789 63.1404 111 62.5789 111ZM62.5789 35.2105C62.0175 35.2105 61.5263 35 61.1053 34.5789C60.6842 34.1579 60.4737 33.6667 60.4737 33.1053C60.4737 32.5439 60.6842 32.0526 61.1053 31.6316C61.5263 31.2105 62.0175 31 62.5789 31C63.1404 31 63.6316 31.2105 64.0526 31.6316C64.4737 32.0526 64.6842 32.5439 64.6842 33.1053C64.6842 33.6667 64.4737 34.1579 64.0526 34.5789C63.6316 35 63.1404 35.2105 62.5789 35.2105ZM79.4211 85.7368C77.6667 85.7368 76.1761 85.1221 74.9495 83.8926C73.72 82.666 73.1053 81.1754 73.1053 79.4211C73.1053 77.6667 73.72 76.1761 74.9495 74.9495C76.1761 73.72 77.6667 73.1053 79.4211 73.1053C81.1754 73.1053 82.666 73.72 83.8926 74.9495C85.1221 76.1761 85.7368 77.6667 85.7368 79.4211C85.7368 81.1754 85.1221 82.666 83.8926 83.8926C82.666 85.1221 81.1754 85.7368 79.4211 85.7368ZM79.4211 68.8947C77.6667 68.8947 76.1761 68.28 74.9495 67.0505C73.72 65.8239 73.1053 64.3333 73.1053 62.5789C73.1053 60.8246 73.72 59.334 74.9495 58.1074C76.1761 56.8779 77.6667 56.2632 79.4211 56.2632C81.1754 56.2632 82.666 56.8779 83.8926 58.1074C85.1221 59.334 85.7368 60.8246 85.7368 62.5789C85.7368 64.3333 85.1221 65.8239 83.8926 67.0505C82.666 68.28 81.1754 68.8947 79.4211 68.8947ZM79.4211 100.474C78.2281 100.474 77.2288 100.069 76.4232 99.2611C75.6147 98.4554 75.2105 97.4561 75.2105 96.2632C75.2105 95.0702 75.6147 94.0709 76.4232 93.2653C77.2288 92.4568 78.2281 92.0526 79.4211 92.0526C80.614 92.0526 81.6147 92.4568 82.4232 93.2653C83.2288 94.0709 83.6316 95.0702 83.6316 96.2632C83.6316 97.4561 83.2288 98.4554 82.4232 99.2611C81.6147 100.069 80.614 100.474 79.4211 100.474ZM79.4211 49.9474C78.2281 49.9474 77.2288 49.5446 76.4232 48.7389C75.6147 47.9305 75.2105 46.9298 75.2105 45.7368C75.2105 44.5439 75.6147 43.5432 76.4232 42.7347C77.2288 41.9291 78.2281 41.5263 79.4211 41.5263C80.614 41.5263 81.6147 41.9291 82.4232 42.7347C83.2288 43.5432 83.6316 44.5439 83.6316 45.7368C83.6316 46.9298 83.2288 47.9305 82.4232 48.7389C81.6147 49.5446 80.614 49.9474 79.4211 49.9474ZM79.4211 111C78.8596 111 78.3684 110.789 77.9474 110.368C77.5263 109.947 77.3158 109.456 77.3158 108.895C77.3158 108.333 77.5263 107.842 77.9474 107.421C78.3684 107 78.8596 106.789 79.4211 106.789C79.9825 106.789 80.4737 107 80.8947 107.421C81.3158 107.842 81.5263 108.333 81.5263 108.895C81.5263 109.456 81.3158 109.947 80.8947 110.368C80.4737 110.789 79.9825 111 79.4211 111ZM79.4211 35.2105C78.8596 35.2105 78.3684 35 77.9474 34.5789C77.5263 34.1579 77.3158 33.6667 77.3158 33.1053C77.3158 32.5439 77.5263 32.0526 77.9474 31.6316C78.3684 31.2105 78.8596 31 79.4211 31C79.9825 31 80.4737 31.2105 80.8947 31.6316C81.3158 32.0526 81.5263 32.5439 81.5263 33.1053C81.5263 33.6667 81.3158 34.1579 80.8947 34.5789C80.4737 35 79.9825 35.2105 79.4211 35.2105ZM96.2632 100.474C95.0702 100.474 94.0709 100.069 93.2653 99.2611C92.4568 98.4554 92.0526 97.4561 92.0526 96.2632C92.0526 95.0702 92.4568 94.0709 93.2653 93.2653C94.0709 92.4568 95.0702 92.0526 96.2632 92.0526C97.4561 92.0526 98.4554 92.4568 99.2611 93.2653C100.069 94.0709 100.474 95.0702 100.474 96.2632C100.474 97.4561 100.069 98.4554 99.2611 99.2611C98.4554 100.069 97.4561 100.474 96.2632 100.474ZM96.2632 83.6316C95.0702 83.6316 94.0709 83.2274 93.2653 82.4189C92.4568 81.6133 92.0526 80.614 92.0526 79.4211C92.0526 78.2281 92.4568 77.2274 93.2653 76.4189C94.0709 75.6133 95.0702 75.2105 96.2632 75.2105C97.4561 75.2105 98.4554 75.6133 99.2611 76.4189C100.069 77.2274 100.474 78.2281 100.474 79.4211C100.474 80.614 100.069 81.6133 99.2611 82.4189C98.4554 83.2274 97.4561 83.6316 96.2632 83.6316ZM96.2632 66.7895C95.0702 66.7895 94.0709 66.3853 93.2653 65.5768C92.4568 64.7712 92.0526 63.7719 92.0526 62.5789C92.0526 61.386 92.4568 60.3853 93.2653 59.5768C94.0709 58.7712 95.0702 58.3684 96.2632 58.3684C97.4561 58.3684 98.4554 58.7712 99.2611 59.5768C100.069 60.3853 100.474 61.386 100.474 62.5789C100.474 63.7719 100.069 64.7712 99.2611 65.5768C98.4554 66.3853 97.4561 66.7895 96.2632 66.7895ZM96.2632 49.9474C95.0702 49.9474 94.0709 49.5446 93.2653 48.7389C92.4568 47.9305 92.0526 46.9298 92.0526 45.7368C92.0526 44.5439 92.4568 43.5432 93.2653 42.7347C94.0709 41.9291 95.0702 41.5263 96.2632 41.5263C97.4561 41.5263 98.4554 41.9291 99.2611 42.7347C100.069 43.5432 100.474 44.5439 100.474 45.7368C100.474 46.9298 100.069 47.9305 99.2611 48.7389C98.4554 49.5446 97.4561 49.9474 96.2632 49.9474ZM108.895 81.5263C108.333 81.5263 107.842 81.3158 107.421 80.8947C107 80.4737 106.789 79.9825 106.789 79.4211C106.789 78.8596 107 78.3684 107.421 77.9474C107.842 77.5263 108.333 77.3158 108.895 77.3158C109.456 77.3158 109.947 77.5263 110.368 77.9474C110.789 78.3684 111 78.8596 111 79.4211C111 79.9825 110.789 80.4737 110.368 80.8947C109.947 81.3158 109.456 81.5263 108.895 81.5263ZM108.895 64.6842C108.333 64.6842 107.842 64.4737 107.421 64.0526C107 63.6316 106.789 63.1404 106.789 62.5789C106.789 62.0175 107 61.5263 107.421 61.1053C107.842 60.6842 108.333 60.4737 108.895 60.4737C109.456 60.4737 109.947 60.6842 110.368 61.1053C110.789 61.5263 111 62.0175 111 62.5789C111 63.1404 110.789 63.6316 110.368 64.0526C109.947 64.4737 109.456 64.6842 108.895 64.6842Z" fill="#BFFFA2"/>
<path d="M33.1053 81.5263C32.5439 81.5263 32.0526 81.3158 31.6316 80.8947C31.2105 80.4737 31 79.9825 31 79.4211C31 78.8596 31.2105 78.3684 31.6316 77.9474C32.0526 77.5263 32.5439 77.3158 33.1053 77.3158C33.6667 77.3158 34.1579 77.5263 34.5789 77.9474C35 78.3684 35.2105 78.8596 35.2105 79.4211C35.2105 79.9825 35 80.4737 34.5789 80.8947C34.1579 81.3158 33.6667 81.5263 33.1053 81.5263ZM33.1053 64.6842C32.5439 64.6842 32.0526 64.4737 31.6316 64.0526C31.2105 63.6316 31 63.1404 31 62.5789C31 62.0175 31.2105 61.5263 31.6316 61.1053C32.0526 60.6842 32.5439 60.4737 33.1053 60.4737C33.6667 60.4737 34.1579 60.6842 34.5789 61.1053C35 61.5263 35.2105 62.0175 35.2105 62.5789C35.2105 63.1404 35 63.6316 34.5789 64.0526C34.1579 64.4737 33.6667 64.6842 33.1053 64.6842ZM45.7368 100.474C44.5439 100.474 43.5432 100.069 42.7347 99.2611C41.9291 98.4554 41.5263 97.4561 41.5263 96.2632C41.5263 95.0702 41.9291 94.0709 42.7347 93.2653C43.5432 92.4568 44.5439 92.0526 45.7368 92.0526C46.9298 92.0526 47.9305 92.4568 48.7389 93.2653C49.5446 94.0709 49.9474 95.0702 49.9474 96.2632C49.9474 97.4561 49.5446 98.4554 48.7389 99.2611C47.9305 100.069 46.9298 100.474 45.7368 100.474ZM45.7368 83.6316C44.5439 83.6316 43.5432 83.2274 42.7347 82.4189C41.9291 81.6133 41.5263 80.614 41.5263 79.4211C41.5263 78.2281 41.9291 77.2274 42.7347 76.4189C43.5432 75.6133 44.5439 75.2105 45.7368 75.2105C46.9298 75.2105 47.9305 75.6133 48.7389 76.4189C49.5446 77.2274 49.9474 78.2281 49.9474 79.4211C49.9474 80.614 49.5446 81.6133 48.7389 82.4189C47.9305 83.2274 46.9298 83.6316 45.7368 83.6316ZM45.7368 66.7895C44.5439 66.7895 43.5432 66.3853 42.7347 65.5768C41.9291 64.7712 41.5263 63.7719 41.5263 62.5789C41.5263 61.386 41.9291 60.3853 42.7347 59.5768C43.5432 58.7712 44.5439 58.3684 45.7368 58.3684C46.9298 58.3684 47.9305 58.7712 48.7389 59.5768C49.5446 60.3853 49.9474 61.386 49.9474 62.5789C49.9474 63.7719 49.5446 64.7712 48.7389 65.5768C47.9305 66.3853 46.9298 66.7895 45.7368 66.7895ZM45.7368 49.9474C44.5439 49.9474 43.5432 49.5446 42.7347 48.7389C41.9291 47.9305 41.5263 46.9298 41.5263 45.7368C41.5263 44.5439 41.9291 43.5432 42.7347 42.7347C43.5432 41.9291 44.5439 41.5263 45.7368 41.5263C46.9298 41.5263 47.9305 41.9291 48.7389 42.7347C49.5446 43.5432 49.9474 44.5439 49.9474 45.7368C49.9474 46.9298 49.5446 47.9305 48.7389 48.7389C47.9305 49.5446 46.9298 49.9474 45.7368 49.9474ZM62.5789 85.7368C60.8246 85.7368 59.334 85.1221 58.1074 83.8926C56.8779 82.666 56.2632 81.1754 56.2632 79.4211C56.2632 77.6667 56.8779 76.1761 58.1074 74.9495C59.334 73.72 60.8246 73.1053 62.5789 73.1053C64.3333 73.1053 65.8239 73.72 67.0505 74.9495C68.28 76.1761 68.8947 77.6667 68.8947 79.4211C68.8947 81.1754 68.28 82.666 67.0505 83.8926C65.8239 85.1221 64.3333 85.7368 62.5789 85.7368ZM62.5789 68.8947C60.8246 68.8947 59.334 68.28 58.1074 67.0505C56.8779 65.8239 56.2632 64.3333 56.2632 62.5789C56.2632 60.8246 56.8779 59.334 58.1074 58.1074C59.334 56.8779 60.8246 56.2632 62.5789 56.2632C64.3333 56.2632 65.8239 56.8779 67.0505 58.1074C68.28 59.334 68.8947 60.8246 68.8947 62.5789C68.8947 64.3333 68.28 65.8239 67.0505 67.0505C65.8239 68.28 64.3333 68.8947 62.5789 68.8947ZM62.5789 100.474C61.386 100.474 60.3867 100.069 59.5811 99.2611C58.7726 98.4554 58.3684 97.4561 58.3684 96.2632C58.3684 95.0702 58.7726 94.0709 59.5811 93.2653C60.3867 92.4568 61.386 92.0526 62.5789 92.0526C63.7719 92.0526 64.7726 92.4568 65.5811 93.2653C66.3867 94.0709 66.7895 95.0702 66.7895 96.2632C66.7895 97.4561 66.3867 98.4554 65.5811 99.2611C64.7726 100.069 63.7719 100.474 62.5789 100.474ZM62.5789 49.9474C61.386 49.9474 60.3867 49.5446 59.5811 48.7389C58.7726 47.9305 58.3684 46.9298 58.3684 45.7368C58.3684 44.5439 58.7726 43.5432 59.5811 42.7347C60.3867 41.9291 61.386 41.5263 62.5789 41.5263C63.7719 41.5263 64.7726 41.9291 65.5811 42.7347C66.3867 43.5432 66.7895 44.5439 66.7895 45.7368C66.7895 46.9298 66.3867 47.9305 65.5811 48.7389C64.7726 49.5446 63.7719 49.9474 62.5789 49.9474ZM62.5789 111C62.0175 111 61.5263 110.789 61.1053 110.368C60.6842 109.947 60.4737 109.456 60.4737 108.895C60.4737 108.333 60.6842 107.842 61.1053 107.421C61.5263 107 62.0175 106.789 62.5789 106.789C63.1404 106.789 63.6316 107 64.0526 107.421C64.4737 107.842 64.6842 108.333 64.6842 108.895C64.6842 109.456 64.4737 109.947 64.0526 110.368C63.6316 110.789 63.1404 111 62.5789 111ZM62.5789 35.2105C62.0175 35.2105 61.5263 35 61.1053 34.5789C60.6842 34.1579 60.4737 33.6667 60.4737 33.1053C60.4737 32.5439 60.6842 32.0526 61.1053 31.6316C61.5263 31.2105 62.0175 31 62.5789 31C63.1404 31 63.6316 31.2105 64.0526 31.6316C64.4737 32.0526 64.6842 32.5439 64.6842 33.1053C64.6842 33.6667 64.4737 34.1579 64.0526 34.5789C63.6316 35 63.1404 35.2105 62.5789 35.2105ZM79.4211 85.7368C77.6667 85.7368 76.1761 85.1221 74.9495 83.8926C73.72 82.666 73.1053 81.1754 73.1053 79.4211C73.1053 77.6667 73.72 76.1761 74.9495 74.9495C76.1761 73.72 77.6667 73.1053 79.4211 73.1053C81.1754 73.1053 82.666 73.72 83.8926 74.9495C85.1221 76.1761 85.7368 77.6667 85.7368 79.4211C85.7368 81.1754 85.1221 82.666 83.8926 83.8926C82.666 85.1221 81.1754 85.7368 79.4211 85.7368ZM79.4211 68.8947C77.6667 68.8947 76.1761 68.28 74.9495 67.0505C73.72 65.8239 73.1053 64.3333 73.1053 62.5789C73.1053 60.8246 73.72 59.334 74.9495 58.1074C76.1761 56.8779 77.6667 56.2632 79.4211 56.2632C81.1754 56.2632 82.666 56.8779 83.8926 58.1074C85.1221 59.334 85.7368 60.8246 85.7368 62.5789C85.7368 64.3333 85.1221 65.8239 83.8926 67.0505C82.666 68.28 81.1754 68.8947 79.4211 68.8947ZM79.4211 100.474C78.2281 100.474 77.2288 100.069 76.4232 99.2611C75.6147 98.4554 75.2105 97.4561 75.2105 96.2632C75.2105 95.0702 75.6147 94.0709 76.4232 93.2653C77.2288 92.4568 78.2281 92.0526 79.4211 92.0526C80.614 92.0526 81.6147 92.4568 82.4232 93.2653C83.2288 94.0709 83.6316 95.0702 83.6316 96.2632C83.6316 97.4561 83.2288 98.4554 82.4232 99.2611C81.6147 100.069 80.614 100.474 79.4211 100.474ZM79.4211 49.9474C78.2281 49.9474 77.2288 49.5446 76.4232 48.7389C75.6147 47.9305 75.2105 46.9298 75.2105 45.7368C75.2105 44.5439 75.6147 43.5432 76.4232 42.7347C77.2288 41.9291 78.2281 41.5263 79.4211 41.5263C80.614 41.5263 81.6147 41.9291 82.4232 42.7347C83.2288 43.5432 83.6316 44.5439 83.6316 45.7368C83.6316 46.9298 83.2288 47.9305 82.4232 48.7389C81.6147 49.5446 80.614 49.9474 79.4211 49.9474ZM79.4211 111C78.8596 111 78.3684 110.789 77.9474 110.368C77.5263 109.947 77.3158 109.456 77.3158 108.895C77.3158 108.333 77.5263 107.842 77.9474 107.421C78.3684 107 78.8596 106.789 79.4211 106.789C79.9825 106.789 80.4737 107 80.8947 107.421C81.3158 107.842 81.5263 108.333 81.5263 108.895C81.5263 109.456 81.3158 109.947 80.8947 110.368C80.4737 110.789 79.9825 111 79.4211 111ZM79.4211 35.2105C78.8596 35.2105 78.3684 35 77.9474 34.5789C77.5263 34.1579 77.3158 33.6667 77.3158 33.1053C77.3158 32.5439 77.5263 32.0526 77.9474 31.6316C78.3684 31.2105 78.8596 31 79.4211 31C79.9825 31 80.4737 31.2105 80.8947 31.6316C81.3158 32.0526 81.5263 32.5439 81.5263 33.1053C81.5263 33.6667 81.3158 34.1579 80.8947 34.5789C80.4737 35 79.9825 35.2105 79.4211 35.2105ZM96.2632 100.474C95.0702 100.474 94.0709 100.069 93.2653 99.2611C92.4568 98.4554 92.0526 97.4561 92.0526 96.2632C92.0526 95.0702 92.4568 94.0709 93.2653 93.2653C94.0709 92.4568 95.0702 92.0526 96.2632 92.0526C97.4561 92.0526 98.4554 92.4568 99.2611 93.2653C100.069 94.0709 100.474 95.0702 100.474 96.2632C100.474 97.4561 100.069 98.4554 99.2611 99.2611C98.4554 100.069 97.4561 100.474 96.2632 100.474ZM96.2632 83.6316C95.0702 83.6316 94.0709 83.2274 93.2653 82.4189C92.4568 81.6133 92.0526 80.614 92.0526 79.4211C92.0526 78.2281 92.4568 77.2274 93.2653 76.4189C94.0709 75.6133 95.0702 75.2105 96.2632 75.2105C97.4561 75.2105 98.4554 75.6133 99.2611 76.4189C100.069 77.2274 100.474 78.2281 100.474 79.4211C100.474 80.614 100.069 81.6133 99.2611 82.4189C98.4554 83.2274 97.4561 83.6316 96.2632 83.6316ZM96.2632 66.7895C95.0702 66.7895 94.0709 66.3853 93.2653 65.5768C92.4568 64.7712 92.0526 63.7719 92.0526 62.5789C92.0526 61.386 92.4568 60.3853 93.2653 59.5768C94.0709 58.7712 95.0702 58.3684 96.2632 58.3684C97.4561 58.3684 98.4554 58.7712 99.2611 59.5768C100.069 60.3853 100.474 61.386 100.474 62.5789C100.474 63.7719 100.069 64.7712 99.2611 65.5768C98.4554 66.3853 97.4561 66.7895 96.2632 66.7895ZM96.2632 49.9474C95.0702 49.9474 94.0709 49.5446 93.2653 48.7389C92.4568 47.9305 92.0526 46.9298 92.0526 45.7368C92.0526 44.5439 92.4568 43.5432 93.2653 42.7347C94.0709 41.9291 95.0702 41.5263 96.2632 41.5263C97.4561 41.5263 98.4554 41.9291 99.2611 42.7347C100.069 43.5432 100.474 44.5439 100.474 45.7368C100.474 46.9298 100.069 47.9305 99.2611 48.7389C98.4554 49.5446 97.4561 49.9474 96.2632 49.9474ZM108.895 81.5263C108.333 81.5263 107.842 81.3158 107.421 80.8947C107 80.4737 106.789 79.9825 106.789 79.4211C106.789 78.8596 107 78.3684 107.421 77.9474C107.842 77.5263 108.333 77.3158 108.895 77.3158C109.456 77.3158 109.947 77.5263 110.368 77.9474C110.789 78.3684 111 78.8596 111 79.4211C111 79.9825 110.789 80.4737 110.368 80.8947C109.947 81.3158 109.456 81.5263 108.895 81.5263ZM108.895 64.6842C108.333 64.6842 107.842 64.4737 107.421 64.0526C107 63.6316 106.789 63.1404 106.789 62.5789C106.789 62.0175 107 61.5263 107.421 61.1053C107.842 60.6842 108.333 60.4737 108.895 60.4737C109.456 60.4737 109.947 60.6842 110.368 61.1053C110.789 61.5263 111 62.0175 111 62.5789C111 63.1404 110.789 63.6316 110.368 64.0526C109.947 64.4737 109.456 64.6842 108.895 64.6842Z" stroke="black" stroke-width="2" mask="url(#path-2-inside-1_70_3)"/>
</g>
<g clip-path="url(#clip0_70_3)" filter="url(#filter1_d_70_3)">
<path d="M187.96 34.5C209.804 34.5 227.5 52.1965 227.5 74C227.5 95.8035 209.804 113.5 187.96 113.5C166.157 113.5 148.5 95.8045 148.5 74C148.5 52.1955 166.157 34.5 187.96 34.5ZM179.881 90.1436C181.616 95.9149 184.24 101.282 187.589 106.124L188 106.719L188.411 106.124C191.76 101.282 194.384 95.9149 196.119 90.1436L196.312 89.5H179.688L179.881 90.1436ZM159.887 90.25C163.787 96.9938 170.004 102.154 177.479 104.713L178.688 105.127L178.08 104.002C175.701 99.6004 173.875 94.8391 172.604 89.876L172.508 89.5H159.453L159.887 90.25ZM203.396 89.876C202.125 94.8391 200.299 99.6004 197.92 104.002L197.312 105.127L198.521 104.713C205.998 102.153 212.213 96.9528 216.112 90.251L216.55 89.5H203.492L203.396 89.876ZM156.555 65.8789C155.907 68.4706 155.5 71.1918 155.5 74C155.5 76.8082 155.907 79.5294 156.555 82.1211L156.649 82.5H171.124L171.057 81.9395C170.738 79.3086 170.5 76.6911 170.5 74C170.5 71.3089 170.738 68.6914 171.057 66.0605L171.124 65.5H156.649L156.555 65.8789ZM178.145 65.9316C177.783 68.5415 177.5 71.2471 177.5 74C177.5 76.7532 177.783 79.419 178.145 82.0674L178.203 82.5H197.797L197.855 82.0674C198.217 79.419 198.5 76.7532 198.5 74C198.5 71.2471 198.217 68.5415 197.855 65.9316L197.796 65.5H178.204L178.145 65.9316ZM204.943 66.0605C205.262 68.6914 205.5 71.3089 205.5 74C205.5 76.6911 205.262 79.3086 204.943 81.9395L204.876 82.5H219.351L219.445 82.1211C220.093 79.5294 220.5 76.8082 220.5 74C220.5 71.1918 220.093 68.4706 219.445 65.8789L219.351 65.5H204.876L204.943 66.0605ZM177.479 43.2871C170.004 45.8465 163.787 51.0062 159.887 57.75L159.453 58.5H172.508L172.604 58.124C173.875 53.1609 175.701 48.3996 178.08 43.998L178.688 42.873L177.479 43.2871ZM187.589 41.876C184.24 46.7177 181.616 52.0851 179.881 57.8564L179.688 58.5H196.312L196.119 57.8564C194.384 52.0851 191.76 46.7177 188.411 41.876L188 41.2812L187.589 41.876ZM197.92 43.998C200.299 48.3996 202.125 53.1609 203.396 58.124L203.492 58.5H216.55L216.112 57.749C212.213 51.0472 205.998 45.8469 198.521 43.2871L197.312 42.873L197.92 43.998Z" fill="white" stroke="black"/>
</g>
<defs>
<filter id="filter0_d_70_3" x="31" y="31" width="80" height="82" filterUnits="userSpaceOnUse" color-interpolation-filters="sRGB">
<feFlood flood-opacity="0" result="BackgroundImageFix"/>
<feColorMatrix in="SourceAlpha" type="matrix" values="0 0 0 0 0 0 0 0 0 0 0 0 0 0 0 0 0 0 127 0" result="hardAlpha"/>
<feOffset dy="2"/>
<feComposite in2="hardAlpha" operator="out"/>
<feColorMatrix type="matrix" values="0 0 0 0 1 0 0 0 0 1 0 0 0 0 1 0 0 0 1 0"/>
<feBlend mode="normal" in2="BackgroundImageFix" result="effect1_dropShadow_70_3"/>
<feBlend mode="normal" in="SourceGraphic" in2="effect1_dropShadow_70_3" result="shape"/>
</filter>
<filter id="filter1_d_70_3" x="140" y="26" width="96" height="98" filterUnits="userSpaceOnUse" color-interpolation-filters="sRGB">
<feFlood flood-opacity="0" result="BackgroundImageFix"/>
<feColorMatrix in="SourceAlpha" type="matrix" values="0 0 0 0 0 0 0 0 0 0 0 0 0 0 0 0 0 0 127 0" result="hardAlpha"/>
<feOffset dy="2"/>
<feColorMatrix type="matrix" values="0 0 0 0 0.75032 0 0 0 0 1 0 0 0 0 0.634615 0 0 0 1 0"/>
<feBlend mode="normal" in2="BackgroundImageFix" result="effect1_dropShadow_70_3"/>
<feBlend mode="normal" in="SourceGraphic" in2="effect1_dropShadow_70_3" result="shape"/>
</filter>
<clipPath id="clip0_70_3">
<rect width="96" height="96" fill="white" transform="translate(140 26)"/>
</clipPath>
</defs>
</svg>
